<?xml version="1.0" encoding="UTF-8"?>
<svg width="512" height="512" viewBox="0 0 512 512" fill="none" xmlns="http://www.w3.org/2000/svg">
  <circle cx="256" cy="256" r="256" fill="#A7C7E7"/>
  <path d="M256 128C283.614 128 306 150.386 306 178C306 205.614 283.614 228 256 228C228.386 228 206 205.614 206 178C206 150.386 228.386 128 256 128Z" fill="white"/>
  <path d="M156 178C183.614 178 206 200.386 206 228C206 255.614 183.614 278 156 278C128.386 278 106 255.614 106 228C106 200.386 128.386 178 156 178Z" fill="#6B7280"/>
  <path d="M356 178C383.614 178 406 200.386 406 228C406 255.614 383.614 278 356 278C328.386 278 306 255.614 306 228C306 200.386 328.386 178 356 178Z" fill="#6B7280"/>
  <path d="M256 278C283.614 278 306 300.386 306 328C306 355.614 283.614 378 256 378C228.386 378 206 355.614 206 328C206 300.386 228.386 278 256 278Z" fill="#6B7280"/>
</svg> 